<svg width="17" height="17" viewBox="0 0 17 17" fill="none" xmlns="http://www.w3.org/2000/svg">
<g clip-path="url(#clip0_20_3328)">
<path fill-rule="evenodd" clip-rule="evenodd" d="M8.76074 0.778198C5.99874 0.778198 4.01074 3.2042 4.01074 6.0082V6.8552C4.01074 6.8682 4.00974 6.8712 4.00774 6.8752V6.8762C3.98756 6.91709 3.962 6.95509 3.93174 6.9892C3.85215 7.08384 3.76736 7.17398 3.67774 7.2592L3.50574 7.4262L3.48474 7.4462C3.42274 7.5062 3.35574 7.5702 3.28674 7.6392L3.24074 7.6772C2.69574 8.1352 1.76074 8.9212 1.76074 10.2402C1.76074 11.2282 2.22674 11.9772 2.87774 12.4912C3.49174 12.9772 4.26874 13.2592 4.99274 13.4332C6.43074 13.7782 8.02574 13.7782 8.73774 13.7782H8.78374C9.49574 13.7782 11.0907 13.7782 12.5287 13.4332C13.2527 13.2592 14.0287 12.9772 14.6437 12.4912C15.2937 11.9782 15.7607 11.2282 15.7607 10.2402C15.7607 8.9202 14.8257 8.1352 14.2807 7.6772L14.2347 7.6392L14.0367 7.4462L14.0167 7.4262C13.9591 7.3712 13.9018 7.31586 13.8447 7.2602C13.7544 7.175 13.6693 7.08451 13.5897 6.9892C13.5595 6.95506 13.534 6.91706 13.5137 6.8762C13.5117 6.8712 13.5107 6.8682 13.5107 6.8552V6.0082C13.5107 3.2042 11.5227 0.778198 8.76074 0.778198ZM6.01074 6.0082C6.01074 4.0762 7.32274 2.7782 8.76074 2.7782C10.1987 2.7782 11.5107 4.0752 11.5107 6.0082V6.8552C11.5107 7.4502 11.7527 7.8982 12.0317 8.2442C12.2117 8.4672 12.4587 8.7042 12.6717 8.9092L12.8587 9.0892L12.8857 9.1172L12.9157 9.1412C13.5857 9.7092 13.7607 9.9282 13.7607 10.2402C13.7607 10.5202 13.6557 10.7232 13.4027 10.9232C13.1157 11.1512 12.6597 11.3452 12.0617 11.4882C10.8717 11.7742 9.48574 11.7782 8.76074 11.7782C8.03574 11.7782 6.65074 11.7742 5.45974 11.4882C4.86174 11.3452 4.40674 11.1512 4.11874 10.9232C3.86574 10.7232 3.76074 10.5202 3.76074 10.2402C3.76074 9.9282 3.93574 9.7102 4.60674 9.1412L4.63674 9.1172L4.66374 9.0902C4.71974 9.0342 4.78374 8.9732 4.84874 8.9102C5.06274 8.7042 5.30974 8.4672 5.48874 8.2442C5.76874 7.8982 6.01074 7.4502 6.01074 6.8542V6.0092V6.0082ZM5.86274 14.5862C6.03923 15.2169 6.4172 15.7726 6.93901 16.1684C7.46081 16.5643 8.09779 16.7786 8.75274 16.7786C9.4077 16.7786 10.0447 16.5643 10.5665 16.1684C11.0883 15.7726 11.4663 15.2169 11.6427 14.5862C10.6849 14.7157 9.71932 14.7799 8.75274 14.7782C8.15174 14.7782 7.04774 14.7542 5.86274 14.5862Z" fill="#737A8E"/>
</g>
<defs>
<clipPath id="clip0_20_3328">
<rect width="16" height="16" fill="white" transform="translate(0.760742 0.778198)"/>
</clipPath>
</defs>
</svg>
