<svg width="17" height="18" viewBox="0 0 17 18" fill="none" xmlns="http://www.w3.org/2000/svg">
<g clip-path="url(#clip0_20_3325)">
<path fill-rule="evenodd" clip-rule="evenodd" d="M5.69074 3.7782C4.91665 3.77555 4.17319 4.08037 3.62376 4.62567C3.07434 5.17097 2.76392 5.91212 2.76074 6.6862C2.76074 8.8262 4.23674 10.8472 5.94174 12.4342C6.81499 13.2408 7.75839 13.9681 8.76074 14.6072C9.76314 13.9677 10.7065 13.2402 11.5797 12.4332C13.2847 10.8482 14.7607 8.8282 14.7607 6.6872C14.7578 5.91294 14.4475 5.17154 13.8981 4.62602C13.3486 4.08051 12.605 3.77555 11.8307 3.7782C11.3914 3.77734 10.9574 3.8753 10.561 4.06485C10.1646 4.25439 9.81592 4.53066 9.54074 4.8732L8.76074 5.8422L7.98074 4.8732C7.70557 4.53066 7.35687 4.25439 6.96047 4.06485C6.56408 3.8753 6.13013 3.77734 5.69074 3.7782ZM8.76074 15.7782L8.27074 16.6492H8.26974L8.26774 16.6482L8.26174 16.6452L8.24274 16.6342C7.85482 16.4049 7.47461 16.1627 7.10274 15.9082C6.21372 15.3008 5.37046 14.629 4.57974 13.8982C2.78474 12.2282 0.760742 9.7022 0.760742 6.6862C0.760742 3.9702 2.97274 1.7782 5.69074 1.7782C6.85074 1.7782 7.91874 2.1782 8.76074 2.8462C9.63372 2.15303 10.716 1.77652 11.8307 1.7782C14.5487 1.7782 16.7607 3.9702 16.7607 6.6862C16.7607 9.7022 14.7367 12.2272 12.9417 13.8982C11.8382 14.9175 10.6333 15.8212 9.34574 16.5952L9.27874 16.6342L9.25974 16.6442L9.25374 16.6482L9.25174 16.6492L8.76074 15.7782ZM8.76074 15.7782L9.25074 16.6502L8.76074 16.9252L8.27074 16.6502L8.76074 15.7782Z" fill="#737A8E"/>
</g>
<defs>
<clipPath id="clip0_20_3325">
<rect width="16" height="17" fill="white" transform="translate(0.760742 0.778198)"/>
</clipPath>
</defs>
</svg>
