<svg width="17" height="17" viewBox="0 0 17 17" fill="none" xmlns="http://www.w3.org/2000/svg">
<g clip-path="url(#clip0_20_3322)">
<path fill-rule="evenodd" clip-rule="evenodd" d="M3.45657 12.1792L3.48657 11.6852L3.28457 11.2352C2.71055 9.95501 2.60331 8.51416 2.98147 7.16311C3.35962 5.81206 4.19928 4.63625 5.35446 3.84007C6.50964 3.0439 7.90731 2.67771 9.30448 2.80516C10.7017 2.93262 12.01 3.54566 13.002 4.53771C13.9941 5.52977 14.6071 6.8381 14.7346 8.23527C14.862 9.63245 14.4959 11.0301 13.6997 12.1853C12.9035 13.3405 11.7277 14.1801 10.3766 14.5583C9.02559 14.9364 7.58474 14.8292 6.30457 14.2552L5.85257 14.0512L5.35957 14.0822L3.32957 14.2092L3.45657 12.1792V12.1792ZM2.32257 16.2762L3.20357 16.2212L5.48357 16.0782C7.19033 16.8443 9.11163 16.9881 10.9134 16.4845C12.7152 15.9808 14.2835 14.8616 15.3456 13.3215C16.4077 11.7814 16.8964 9.91775 16.7268 8.05461C16.5572 6.19147 15.74 4.44669 14.4173 3.12365C13.0946 1.8006 11.35 0.982966 9.48694 0.812914C7.62384 0.642863 5.76007 1.13115 4.21968 2.19287C2.6793 3.25459 1.55973 4.8226 1.05564 6.62424C0.551555 8.42589 0.694834 10.3472 1.46057 12.0542L1.31857 14.3352L1.26357 15.2152L1.19357 16.3472L2.32357 16.2772L2.32257 16.2762ZM5.05257 8.07119C5.14541 7.97828 5.25565 7.90456 5.37698 7.85426C5.49831 7.80395 5.62836 7.77803 5.75971 7.77798C5.89106 7.77794 6.02113 7.80376 6.1425 7.85398C6.26387 7.90421 6.37416 7.97784 6.46707 8.07069C6.55998 8.16353 6.63369 8.27377 6.684 8.3951C6.73431 8.51643 6.76022 8.64648 6.76027 8.77783C6.76032 8.90918 6.73449 9.03925 6.68427 9.16062C6.63405 9.28199 6.56041 9.39228 6.46757 9.48519C6.27896 9.66734 6.02636 9.76814 5.76417 9.76586C5.50197 9.76358 5.25116 9.65841 5.06575 9.47301C4.88034 9.2876 4.77517 9.03678 4.77289 8.77459C4.77061 8.51239 4.87141 8.25979 5.05357 8.07119H5.05257ZM8.05257 9.48519C8.24007 9.67283 8.49444 9.7783 8.75971 9.77839C9.02498 9.77848 9.27943 9.6732 9.46707 9.48569C9.65471 9.29818 9.76018 9.04381 9.76027 8.77854C9.76036 8.51327 9.65507 8.25883 9.46757 8.07119C9.27896 7.88903 9.02636 7.78823 8.76417 7.79051C8.50197 7.79279 8.25116 7.89796 8.06575 8.08337C7.88034 8.26878 7.77517 8.51959 7.77289 8.78179C7.77061 9.04398 7.87141 9.29658 8.05357 9.48519H8.05257ZM11.0526 9.48519C11.1454 9.5781 11.2556 9.65181 11.377 9.70212C11.4983 9.75243 11.6284 9.77834 11.7597 9.77839C11.8911 9.77844 12.0211 9.75261 12.1425 9.70239C12.2639 9.65217 12.3742 9.57853 12.4671 9.48569C12.56 9.39284 12.6337 9.28261 12.684 9.16127C12.7343 9.03994 12.7602 8.90989 12.7603 8.77854C12.7603 8.64719 12.7345 8.51712 12.6843 8.39575C12.634 8.27438 12.5604 8.1641 12.4676 8.07119C12.279 7.88903 12.0264 7.78823 11.7642 7.79051C11.502 7.79279 11.2512 7.89796 11.0657 8.08337C10.8803 8.26878 10.7752 8.51959 10.7729 8.78179C10.7706 9.04398 10.8714 9.29658 11.0536 9.48519H11.0526Z" fill="#737A8E"/>
</g>
<defs>
<clipPath id="clip0_20_3322">
<rect width="16" height="16" fill="white" transform="translate(0.760742 0.778198)"/>
</clipPath>
</defs>
</svg>
